<svg xmlns="http://www.w3.org/2000/svg" viewBox="0 0 64 64" fill="none">
  <defs>
    <linearGradient id="bg" x1="10" y1="6" x2="58" y2="62" gradientUnits="userSpaceOnUse">
      <stop stop-color="#059669"/>
      <stop offset="1" stop-color="#34d399"/>
    </linearGradient>
    <linearGradient id="shine" x1="18" y1="10" x2="46" y2="52" gradientUnits="userSpaceOnUse">
      <stop stop-color="#ffffff" stop-opacity=".55"/>
      <stop offset="1" stop-color="#ffffff" stop-opacity="0"/>
    </linearGradient>
  </defs>
  <rect width="64" height="64" rx="14" fill="url(#bg)"/>
  <path d="M18 16c0-2.2 1.8-4 4-4h20c2.2 0 4 1.8 4 4v14c0 12.6-10.2 22.8-22.8 22.8H32C24.3 52.8 18 46.5 18 38.8V16Z" fill="#042f1a" opacity=".92"/>
  <path d="M22 18.5h20v11.7c0 10-8.1 18.1-18.1 18.1H32c-5.5 0-10-4.5-10-10V18.5Z" fill="url(#shine)" opacity=".65"/>
  <path d="M23.5 26h17" stroke="#34d399" stroke-width="2.2" stroke-linecap="round" opacity=".45"/>
  <path d="M23.5 32h14.5" stroke="#34d399" stroke-width="2.2" stroke-linecap="round" opacity=".45"/>
  <path d="M23.5 38h10.5" stroke="#34d399" stroke-width="2.2" stroke-linecap="round" opacity=".45"/>
  <path d="M24 44.3h16.7" stroke="#34d399" stroke-width="2.4" stroke-linecap="round"/>
  <path d="M24 44.3V24.2c0-1.2 1-2.2 2.2-2.2H40c1.2 0 2.2 1 2.2 2.2v20.1" stroke="#34d399" stroke-width="2.4" stroke-linecap="round" opacity=".85"/>
</svg>
